<?xml version="1.0" encoding="UTF-8" standalone="no"?>
<svg
   version="1.1"
   x="0px"
   y="0px"
   viewBox="0 0 83.2 83.200001"
   enable-background="new 0 0 100 100"
   xml:space="preserve"
   id="svg4"
   sodipodi:docname="tykhe.svg"
   width="32"
   height="32"
   inkscape:version="1.1.1 (3bf5ae0, 2021-09-20)"
   xmlns:inkscape="http://www.inkscape.org/namespaces/inkscape"
   xmlns:sodipodi="http://sodipodi.sourceforge.net/DTD/sodipodi-0.dtd"
   xmlns="http://www.w3.org/2000/svg"
   xmlns:svg="http://www.w3.org/2000/svg"><defs
     id="defs8" /><sodipodi:namedview
     id="namedview6"
     pagecolor="#ffffff"
     bordercolor="#cccccc"
     borderopacity="1"
     inkscape:pageshadow="0"
     inkscape:pageopacity="1"
     inkscape:pagecheckerboard="0"
     showgrid="false"
     viewbox-width="36"
     viewbox-height="36"
     inkscape:zoom="7.19"
     inkscape:cx="26.842837"
     inkscape:cy="56.119611"
     inkscape:window-width="1862"
     inkscape:window-height="1053"
     inkscape:window-x="58"
     inkscape:window-y="0"
     inkscape:window-maximized="1"
     inkscape:current-layer="svg4"
     fit-margin-top="0"
     fit-margin-left="0"
     fit-margin-right="0"
     fit-margin-bottom="0"
     scale-x="2.6" /><path
     fill="#000000"
     d="m 81.826996,51.939411 c 0,-12.5 -3.3,-25.2 -9.7,-25.5 0,0 0,0 0,0 -13.4,-1.4 -19.9,0.9 -26.1,3 -4.6,1.6 -8.9,3.1 -16.1,3 -0.1,0 -0.2,0 -0.2,0 0,0 -0.1,0 -0.1,0 -0.2,0 -0.5,0 -0.7,0 -3.3,-0.1 -5.6,-1.1 -6.7,-3 -1.6,-2.8 -0.6,-7.3 0.6,-9.5 1,-1.8 3.4,-3.2 5.4,-3.2 1.5,0 1.9,0.8 2.1,1.1 1.3,2.6 4.1,3.6 6.6,2.3 2.5,-1.2 4.2,-4.6 2,-9.100001 -1.6,-3.1999996 -5.2,-5.5999996 -9.6,-6.3999996 -6.2,-1.1 -12.8,1.1 -17.6,5.7999996 -7.9000005,7.800001 -11.90000055,21.700001 -9.8000005,34.700001 1.8,11.8 8.2999995,21.1 18.2000005,26 11.8,5.9 26.9,7.7 38.2,7.7 7.4,0 13.3,-0.8 15.5,-1.7 0.2,-0.1 0.4,-0.2 0.6,-0.4 4.8,-2.4 7.4,-13.7 7.4,-24.8 z m -4,0 c 0,13.9 -3.9,21.5 -5.9,21.5 -2,0 -5.9,-7.6 -5.9,-21.5 0,-13.9 3.9,-21.5 5.9,-21.5 2,0 5.9,7.6 5.9,21.5 z m -56.1,15.7 c -8.7,-4.4 -14.4000005,-12.6 -16.0000005,-23.1 -1.8,-11.6 1.8,-24.4 8.7000005,-31.200001 3.9,-3.7999996 9.2,-5.5999996 14.1,-4.6999996 3.2,0.5 5.7,2.0999996 6.7,4.1999996 1,2.100001 0.6,3.400001 -0.1,3.800001 -0.2,0.1 -0.8,0.3 -1.3,-0.5 -1,-2.100001 -3.1,-3.300001 -5.6,-3.300001 -3.5,-0.1 -7.3,2.200001 -9,5.300001 -0.8,1.5 -1.8,4.2 -1.9,7.1 -2.5,-0.2 -5.8,0.6 -8.2000005,4.3 -0.6,0.9 -0.3,2.2 0.6,2.8 0.2999995,0.2 0.6999995,0.3 1.0999995,0.3 0.700001,0 1.300001,-0.3 1.700001,-0.9 1.9,-3 4.4,-2.6 5.3,-2.3 0.2,0.8 0.5,1.5 0.9,2.2 0.7,1.2 1.8,2.5 3.6,3.4 -2.8,1.8 -5.1,4.8 -5.5,9.4 -0.1,1.1 0.7,2.1 1.8,2.2 0.1,0 0.1,0 0.2,0 1,0 1.9,-0.8 2,-1.8 0.6,-7.1 7.6,-8 8.9,-8.1 1.4,0 2.7,0 4,-0.1 -2.5,3 -4.6,7.6 -3.9,14.3 0.1,1 1,1.8 2,1.8 0.1,0 0.2,0 0.2,0 1.1,-0.1 1.9,-1.1 1.8,-2.2 -1.3,-11.7 7.3,-15 7.7,-15.2 0.3,-0.1 0.5,-0.3 0.7,-0.4 1.8,-0.5 3.5,-1.1 5.1,-1.6 0.9,-0.3 1.8,-0.6 2.7,-0.9 -0.3,0.3 -0.5,0.6 -0.8,0.9 -3.2,3.8 -6.5,10.9 -4.3,22.6 0.2,1 1,1.6 2,1.6 0.1,0 0.2,0 0.4,0 1.1,-0.2 1.8,-1.2 1.6,-2.3 -1.5,-8.1 -0.3,-14.7 3.5,-19.3 3.2,-3.9 7.6,-5.4 9.5,-5.4 0.4,0 0.8,-0.1 1.2,-0.4 1.1,0 2.3,0 3.6,0 -3,4.7 -4.5,13.3 -4.5,21.9 0,9 1.7,18.1 5.1,22.6 -10,1 -30.6,0.6 -45.6,-7 z"
     id="path2" /></svg>
